{
    "asset" : {
        "generator" : "Khronos glTF Blender I/O v1.2.75",
        "version" : "2.0"
    },
    "scene" : 0,
    "scenes" : [
        {
            "name" : "Scene",
            "nodes" : [
                0
            ]
        }
    ],
    "nodes" : [
        {
            "mesh" : 0,
            "name" : "Mesh_0.001",
            "translation" : [
                -0.8407757878303528,
                7.132140159606934,
                -0.7391418218612671
            ]
        }
    ],
    "materials" : [
        {
            "emissiveFactor" : [
                0.800000011920929,
                0.800000011920929,
                0.800000011920929
            ],
            "name" : "Material_0.001",
            "pbrMetallicRoughness" : {}
        }
    ],
    "meshes" : [
        {
            "name" : "Mesh_0.001",
            "primitives" : [
                {
                    "attributes" : {
                        "POSITION" : 0,
                        "NORMAL" : 1,
                        "TEXCOORD_0" : 2
                    },
                    "indices" : 3,
                    "material" : 0
                }
            ]
        }
    ],
    "accessors" : [
        {
            "bufferView" : 0,
            "componentType" : 5126,
            "count" : 30638,
            "max" : [
                3.343130111694336,
                3.3702149391174316,
                3.2414958477020264
            ],
            "min" : [
                -1.784224271774292,
                -1.7571399211883545,
                -1.8858582973480225
            ],
            "type" : "VEC3"
        },
        {
            "bufferView" : 1,
            "componentType" : 5126,
            "count" : 30638,
            "type" : "VEC3"
        },
        {
            "bufferView" : 2,
            "componentType" : 5126,
            "count" : 30638,
            "type" : "VEC2"
        },
        {
            "bufferView" : 3,
            "componentType" : 5123,
            "count" : 57258,
            "type" : "SCALAR"
        }
    ],
    "bufferViews" : [
        {
            "buffer" : 0,
            "byteLength" : 367656,
            "byteOffset" : 0
        },
        {
            "buffer" : 0,
            "byteLength" : 367656,
            "byteOffset" : 367656
        },
        {
            "buffer" : 0,
            "byteLength" : 245104,
            "byteOffset" : 735312
        },
        {
            "buffer" : 0,
            "byteLength" : 114516,
            "byteOffset" : 980416
        }
    ],
    "buffers" : [
        {
            "byteLength" : 1094932,
            "uri" : "data:application/octet-stream;base64,"
        }
    ]
}
